<svg width="100%" height="100%" id="svg" viewBox="0 0 1440 390" xmlns="http://www.w3.org/2000/svg" class="transition duration-300 ease-in-out delay-150"><defs><linearGradient id="gradient" x1="93%" y1="24%" x2="7%" y2="76%"><stop offset="5%" stop-color="#91d4c6"></stop><stop offset="95%" stop-color="#fbfb57"></stop></linearGradient></defs><path d="M 0,400 L 0,60 C 47.55664076951537,56.62680971759773 95.11328153903074,53.25361943519546 147,46 C 198.88671846096926,38.74638056480454 255.10351461339246,27.61233197681588 309,36 C 362.89648538660754,44.38766802318412 414.47266000739927,72.297052657541 463,72 C 511.52733999260073,71.702947342459 557.0058453570107,43.199457393020104 618,47 C 678.9941546429893,50.800542606979896 755.5039585645579,86.90511777037858 809,88 C 862.4960414354421,89.09488222962142 892.9783203847576,55.180071525465536 937,48 C 981.0216796152424,40.819928474534464 1038.5827598964115,60.37459612775929 1099,71 C 1159.4172401035885,81.62540387224071 1222.6906400295968,83.32154396349735 1280,80 C 1337.3093599704032,76.67845603650265 1388.6546799852017,68.33922801825133 1440,60 L 1440,400 L 0,400 Z" stroke="none" stroke-width="0" fill="url(#gradient)" fill-opacity="0.265" class="transition-all duration-300 ease-in-out delay-150 path-0" transform="rotate(-180 720 200)"></path><defs><linearGradient id="gradient" x1="93%" y1="24%" x2="7%" y2="76%"><stop offset="5%" stop-color="#91d4c6"></stop><stop offset="95%" stop-color="#fbfb57"></stop></linearGradient></defs><path d="M 0,400 L 0,140 C 57.51885559255149,127.57030459982735 115.03771118510298,115.1406091996547 159,117 C 202.96228881489702,118.8593908003453 233.36801085213966,135.00786780120853 293,146 C 352.63198914786034,156.99213219879147 441.49024540633866,162.8279195955112 499,155 C 556.5097545936613,147.1720804044888 582.6710075225059,125.68045381674682 634,129 C 685.3289924774941,132.31954618325318 761.825724503638,160.45026513750156 826,157 C 890.174275496362,153.54973486249844 942.0260944629423,118.51848563324701 983,113 C 1023.9739055370577,107.48151436675299 1054.0698976445926,131.47579232951043 1104,146 C 1153.9301023554074,160.52420767048957 1223.694314958688,165.57834504871127 1283,163 C 1342.305685041312,160.42165495128873 1391.1528425206561,150.21082747564435 1440,140 L 1440,400 L 0,400 Z" stroke="none" stroke-width="0" fill="url(#gradient)" fill-opacity="0.4" class="transition-all duration-300 ease-in-out delay-150 path-1" transform="rotate(-180 720 200)"></path><defs><linearGradient id="gradient" x1="93%" y1="24%" x2="7%" y2="76%"><stop offset="5%" stop-color="#91d4c6"></stop><stop offset="95%" stop-color="#fbfb57"></stop></linearGradient></defs><path d="M 0,400 L 0,220 C 46.70011098779135,208.60702922678504 93.4002219755827,197.2140584535701 141,203 C 188.5997780244173,208.7859415464299 237.09922308546066,231.75079541250463 299,240 C 360.90077691453934,248.24920458749537 436.2028856825748,241.78275989641142 500,234 C 563.7971143174252,226.21724010358858 616.0892341842398,217.1181650018498 659,216 C 701.9107658157602,214.8818349981502 735.4401775804661,221.7445800961894 792,224 C 848.5598224195339,226.2554199038106 928.1500554938957,223.9035146133925 981,222 C 1033.8499445061043,220.0964853866075 1059.959600443951,218.64136145024048 1114,216 C 1168.040399556049,213.35863854975952 1250.0115427302997,209.5310395856456 1309,210 C 1367.9884572697003,210.4689604143544 1403.99422863485,215.2344802071772 1440,220 L 1440,400 L 0,400 Z" stroke="none" stroke-width="0" fill="url(#gradient)" fill-opacity="0.53" class="transition-all duration-300 ease-in-out delay-150 path-2" transform="rotate(-180 720 200)"></path><defs><linearGradient id="gradient" x1="93%" y1="24%" x2="7%" y2="76%"><stop offset="5%" stop-color="#91d4c6"></stop><stop offset="95%" stop-color="#fbfb57"></stop></linearGradient></defs><path d="M 0,400 L 0,300 C 55.12359107164879,305.88817363423357 110.24718214329758,311.7763472684671 168,316 C 225.75281785670242,320.2236527315329 286.1348624984585,322.78278456036503 344,321 C 401.8651375015415,319.21721543963497 457.2133678628684,313.0925144900728 504,309 C 550.7866321371316,304.9074855099272 589.0116660500679,302.8471574793439 643,297 C 696.9883339499321,291.1528425206561 766.7399679368602,281.5188555925515 822,282 C 877.2600320631398,282.4811444074485 918.028462202491,293.0774201504501 959,298 C 999.971537797509,302.9225798495499 1041.1461832531754,302.17146380564805 1090,303 C 1138.8538167468246,303.82853619435195 1195.386804784807,306.2367246269577 1255,306 C 1314.613195215193,305.7632753730423 1377.3065976075964,302.8816376865211 1440,300 L 1440,400 L 0,400 Z" stroke="none" stroke-width="0" fill="url(#gradient)" fill-opacity="1" class="transition-all duration-300 ease-in-out delay-150 path-3" transform="rotate(-180 720 200)"></path></svg>